<svg fill="#51A7F9" xmlns:dc="http://purl.org/dc/elements/1.1/" xmlns:cc="http://creativecommons.org/ns#" xmlns:rdf="http://www.w3.org/1999/02/22-rdf-syntax-ns#" xmlns:svg="http://www.w3.org/2000/svg" xmlns="http://www.w3.org/2000/svg" xmlns:sodipodi="http://sodipodi.sourceforge.net/DTD/sodipodi-0.dtd" xmlns:inkscape="http://www.inkscape.org/namespaces/inkscape" version="1.1" x="0px" y="0px" viewBox="0 0 100 100"><g transform="translate(0,-952.36218)"><path d="m 46.547889,966.40039 -41.0013101,9.0019 c -1.02395,0.2351 -1.73996,1.3838 -1.50005,2.4068 l 14.0004501,59.01211 c 0.23567,1.0112 1.36092,1.7219 2.37507,1.5003 l 41.00132,-9.0019 c 1.02395,-0.235 1.73996,-1.3837 1.50005,-2.4068 l -1.5313,-6.5013 c 8.15024,1.6957 13.82761,0.9744 23.2195,-2.1567 0.78566,-0.2584 1.36469,-1.0482 1.37504,-1.8753 l 0,-12.6588 3.0001,-1.1878 0,6.0951 c -0.6098,0.3521 -1.00629,1.0461 -1.00003,1.7503 l 0,6.0012 c -0.0149,1.0568 0.9433,2.0289 2.00006,2.0289 1.05677,0 2.01501,-0.9721 2.00007,-2.0289 l 0,-6.0012 c 0.0174,-0.7145 -0.38104,-1.4244 -1.00004,-1.7816 l 0,-6.8764 3.75012,-1.5003 c 0.73967,-0.29321 1.26306,-1.06401 1.26306,-1.85981 0,-0.7957 -0.52339,-1.5665 -1.26306,-1.8598 l -25.0008,-10.002 c -0.49626,-0.2207 -1.00995,-0.1462 -1.4688,-2e-4 l -13.68794,5.2511 -5.65643,-23.8488 c -0.45037,-1.2426 -1.23149,-1.6777 -2.37508,-1.5003 z m -1.03128,4.3135 5.31267,22.4734 -8.40652,3.2506 c -0.11776,-0.2259 -0.27777,-0.4288 -0.46876,-0.5938 0.8849,-0.1776 1.58652,-1.0445 1.5938,-1.9692 0.007,-0.9247 -0.68057,-1.8082 -1.56255,-2.0004 0.71951,-0.5652 0.9644,-1.6674 0.56252,-2.5005 -0.40189,-0.8332 -1.40662,-1.3063 -2.28133,-1.0628 0.40866,-0.8245 0.175,-1.9252 -0.53126,-2.5005 -0.70627,-0.5753 -1.80939,-0.5635 -2.50009,0.031 0.0195,-1.0815 -0.94535,-2.0766 -2.00006,-2.063 -0.75434,0.012 -1.48095,0.5093 -1.78131,1.2191 -0.33091,-0.7164 -1.10289,-1.1927 -1.87506,-1.1565 -1.00229,0.052 -1.87923,1.0024 -1.87506,2.0316 -0.69501,-0.5585 -1.78023,-0.567 -2.46883,0 -0.6886,0.5669 -0.9125,1.6525 -0.53126,2.4694 -0.84958,-0.1693 -1.78123,0.3252 -2.15632,1.1252 -0.3751,0.7999 -0.15929,1.8318 0.50001,2.4067 -0.88334,0.1851 -1.5938,1.0758 -1.5938,2.0004 0,0.9246 0.71046,1.7841 1.5938,1.9692 -0.69207,0.5649 -0.94315,1.6504 -0.56251,2.4692 0.38063,0.8189 1.35509,1.2897 2.21882,1.0939 -0.40877,0.82461 -0.17503,1.92531 0.53126,2.50061 0.7063,0.5754 1.80938,0.5637 2.50008,-0.031 -0.0251,0.9291 0.64712,1.8269 1.5313,2.0316 0.88418,0.2047 1.88363,-0.3063 2.25008,-1.1565 0.38961,0.8177 1.35506,1.3028 2.21882,1.0941 0.86375,-0.2089 1.53873,-1.0904 1.5313,-2.0005 0.69501,0.5585 1.78022,0.567 2.46883,0 0.6886,-0.5668 0.91249,-1.6525 0.53126,-2.46931 0.32863,0.077 0.6766,0.066 1.00003,-0.031 0.22175,0.3934 0.58077,0.70761 1.00004,0.87521 l 9.71906,3.7508 0,12.4087 c 0.002,0.8451 0.59936,1.6556 1.4063,1.9065 1.28924,0.3968 2.49337,0.7443 3.65636,1.0629 l 1.5313,6.5013 -32.12603,7.0639 -12.96917,-55.16751 z m -9.03154,4.7197 -12.00038,3.0006 1.00003,3.8758 12.00038,-3.0006 z m 32.4698,15.0656 19.62563,7.8766 -19.62563,7.84551 -20.40691,-7.84551 z m 13.03166,14.81561 0,9.5643 c -10.20313,3.2801 -14.91677,3.2426 -26.00083,-0.062 l 0,-9.3143 12.28164,4.7198 c 0.46632,0.1841 1.00249,0.1841 1.4688,0 z m -32.43854,5.0947 -23.00074,5.001 0.87503,3.9071 23.00074,-5.0011 z m 2.03132,6.0012 -24.00078,5.001 0.81253,3.9071 24.00077,-5.001 z" style="text-indent:0;text-transform:none;direction:ltr;block-progression:tb;baseline-shift:baseline;color:#000000;enable-background:accumulate;" fill="#51A7F9" fill-opacity="1" stroke="none" marker="none" visibility="visible" display="inline" overflow="visible"></path></g></svg>