<svg fill="#51A7F9" xmlns="http://www.w3.org/2000/svg" data-name="Layer 1" viewBox="0 0 100 100" x="0px" y="0px"><title>Artboard 23</title><path d="M55.86,89.75a25.16,25.16,0,0,1,7.87-18.33,19.57,19.57,0,0,1,26.79-26V20.89a5.19,5.19,0,0,0-2.84-5l-3.32-1.29h0l-7.9-3.07L67.44,8,59.32,4.89,51.15,1.71l-.22-.06-.21-.06a3.09,3.09,0,0,0-1.43,0l-.21.06-.22.06L12.32,15.93a5.19,5.19,0,0,0-2.84,5V82.16h-4a5,5,0,1,0,0,10.09H55.86ZM46,73.52l-28.54.74v-7.1L46,64.93Zm0-17.17L17.46,60.08V53L46,47.76Zm0-17.17L17.46,45.89v-7.1L46,30.58ZM46,22,17.46,31.7v-7L46,13.62ZM99.54,89.75V96A2.55,2.55,0,0,1,97,98.5H65.52A2.55,2.55,0,0,1,63,96v-6.2A18.14,18.14,0,0,1,74.21,73,12.46,12.46,0,1,1,88.3,73,18.14,18.14,0,0,1,99.54,89.75Z"></path></svg>