<svg fill="#51A7F9" xmlns="http://www.w3.org/2000/svg" xmlns:xlink="http://www.w3.org/1999/xlink" viewBox="0 0 48 48" version="1.1" x="0px" y="0px"><title>user</title><desc>Created with Sketch.</desc><g stroke="none" stroke-width="1" fill="none" fill-rule="evenodd"><g><g transform="translate(2.000000, 3.000000)" fill-rule="nonzero" fill="#51A7F9"><path d="M2,42 L0,42 L0,39 C0,32.9248678 4.92486775,28 11,28 L33,28 C39.0751322,28 44,32.9248678 44,39 L44,42 L42,42 L42,39 C42,34.0294373 37.9705627,30 33,30 L11,30 C6.02943725,30 2,34.0294373 2,39 L2,42 Z M22,24 C15.372583,24 10,18.627417 10,12 C10,5.372583 15.372583,0 22,0 C28.627417,0 34,5.372583 34,12 C34,18.627417 28.627417,24 22,24 Z M22,22 C27.5228475,22 32,17.5228475 32,12 C32,6.4771525 27.5228475,2 22,2 C16.4771525,2 12,6.4771525 12,12 C12,17.5228475 16.4771525,22 22,22 Z"></path></g></g></g></svg>